<mxfile host="app.diagrams.net" modified="2024-05-29T14:03:59.751Z" agent="Mozilla/5.0 (Windows NT 10.0; Win64; x64) AppleWebKit/537.36 (KHTML, like Gecko) Chrome/125.0.0.0 Safari/537.36" version="24.4.8" etag="R7crqSgIF1S6AANECCvv" type="github">
  <diagram name="Страница — 1" id="3pTyL0t1YQrYRNZVp7Kh">
    <mxGraphModel>
      <root>
        <mxCell id="0" />
        <mxCell id="1" parent="0" />
      </root>
    </mxGraphModel>
  </diagram>
</mxfile>
